<?xml version="1.0" encoding="UTF-8"?>
<svg xmlns="http://www.w3.org/2000/svg" xmlns:xlink="http://www.w3.org/1999/xlink" width="360pt" height="338.36pt" viewBox="0 0 360 338.36" version="1.1">
<defs>
<clipPath id="clip1">
  <path d="M 0 0 L 360 0 L 360 338.359375 L 0 338.359375 Z M 0 0 "/>
</clipPath>
</defs>
<g id="surface1">
<path style=" stroke:none;fill-rule:nonzero;fill:rgb(100%,100%,100%);fill-opacity:1;" d="M 182.226563 334.628906 C 181.316406 334.628906 180.425781 334.601563 179.53125 334.558594 C 178.960938 334.601563 178.367188 334.628906 177.773438 334.628906 C 156.886719 334.628906 143.480469 325.152344 130.519531 315.988281 C 121.570313 309.664063 113.121094 303.691406 103.171875 302.035156 C 98.316406 301.230469 93.480469 300.824219 88.808594 300.824219 C 80.394531 300.824219 73.757813 302.121094 68.910156 303.070313 C 65.964844 303.644531 63.425781 304.140625 61.492188 304.140625 C 59.476563 304.140625 57.289063 303.703125 56.339844 300.457031 C 55.515625 297.648438 54.917969 294.921875 54.34375 292.289063 C 52.863281 285.507813 51.8125 281.335938 48.96875 280.898438 C 15.84375 275.785156 6.363281 268.808594 4.25 263.855469 C 3.949219 263.148438 3.78125 262.441406 3.738281 261.738281 C 3.632813 259.835938 4.980469 258.15625 6.859375 257.851563 C 57.78125 249.464844 80.613281 197.421875 81.5625 195.210938 C 81.589844 195.148438 81.613281 195.089844 81.644531 195.03125 C 84.761719 188.714844 85.371094 183.230469 83.464844 178.738281 C 79.96875 170.503906 68.574219 166.882813 61.027344 164.488281 C 59.183594 163.90625 57.433594 163.355469 56.050781 162.808594 C 40.996094 156.855469 39.746094 150.75 40.335938 147.636719 C 41.34375 142.328125 48.433594 138.632813 54.167969 138.632813 C 55.742188 138.632813 57.125 138.910156 58.289063 139.453125 C 65.0625 142.628906 71.164063 144.234375 76.429688 144.234375 C 83.707031 144.234375 86.882813 141.175781 87.273438 140.777344 C 87.085938 137.328125 86.855469 133.730469 86.621094 130.015625 C 85.105469 105.941406 83.226563 76.027344 90.84375 58.953125 C 113.671875 7.769531 162.078125 3.796875 176.371094 3.796875 C 176.734375 3.796875 182.636719 3.734375 182.636719 3.734375 L 183.480469 3.730469 C 197.808594 3.730469 246.320313 7.710938 269.160156 58.921875 C 276.777344 76.007813 274.894531 105.945313 273.375 130.003906 L 273.3125 131.046875 C 273.101563 134.398438 272.898438 137.652344 272.726563 140.769531 C 273.09375 141.140625 276.011719 143.953125 282.609375 144.207031 L 282.617188 144.207031 C 287.628906 144.015625 293.390625 142.417969 299.714844 139.453125 C 301.566406 138.589844 303.625 138.40625 305.027344 138.40625 C 307.167969 138.40625 309.335938 138.820313 311.136719 139.574219 L 311.246094 139.617188 C 316.359375 141.429688 319.710938 145.015625 319.78125 148.761719 C 319.847656 152.289063 317.15625 157.589844 303.949219 162.808594 C 302.578125 163.347656 300.828125 163.902344 298.976563 164.488281 C 291.425781 166.886719 280.03125 170.503906 276.539063 178.738281 C 274.628906 183.226563 275.242188 188.707031 278.355469 195.027344 C 278.382813 195.085938 278.414063 195.144531 278.441406 195.210938 C 279.386719 197.417969 302.203125 249.449219 353.144531 257.84375 C 355.023438 258.152344 356.367188 259.828125 356.265625 261.734375 C 356.222656 262.445313 356.050781 263.164063 355.742188 263.863281 C 353.644531 268.777344 344.171875 275.746094 311.035156 280.867188 C 308.328125 281.28125 307.277344 284.808594 305.660156 292.207031 C 305.074219 294.898438 304.480469 297.542969 303.660156 300.324219 C 302.957031 302.738281 301.453125 303.867188 298.921875 303.867188 L 298.511719 303.867188 C 296.753906 303.867188 294.257813 303.550781 291.09375 302.929688 C 285.484375 301.832031 279.195313 300.824219 271.191406 300.824219 C 266.519531 300.824219 261.683594 301.230469 256.824219 302.035156 C 246.882813 303.691406 238.441406 309.652344 229.507813 315.96875 C 216.519531 325.152344 203.117188 334.628906 182.226563 334.628906 "/>
<g clip-path="url(#clip1)" clip-rule="nonzero">
<path style=" stroke:none;fill-rule:nonzero;fill:rgb(1.199341%,1.599121%,1.998901%);fill-opacity:1;" d="M 183.480469 -0.00390625 L 183.46875 -0.00390625 C 183.15625 -0.00390625 182.863281 -0.00390625 182.589844 0.00390625 C 182.589844 0.00390625 176.816406 0.0625 176.359375 0.0625 C 161.507813 0.0625 111.179688 4.199219 87.433594 57.433594 C 79.445313 75.347656 81.359375 105.765625 82.894531 130.210938 C 83.078125 133.089844 83.269531 136.082031 83.433594 138.976563 C 82.207031 139.65625 79.960938 140.5 76.429688 140.5 C 71.71875 140.5 66.144531 139.015625 59.875 136.074219 C 58.210938 135.292969 56.289063 134.902344 54.167969 134.902344 C 46.824219 134.902344 38.039063 139.734375 36.671875 146.9375 C 35.683594 152.125 38.003906 159.691406 54.679688 166.277344 C 56.183594 166.871094 57.992188 167.445313 59.902344 168.050781 C 66.789063 170.238281 77.203125 173.539063 80.027344 180.195313 C 81.492188 183.644531 80.90625 188.082031 78.296875 193.382813 C 78.238281 193.503906 78.183594 193.621094 78.128906 193.742188 C 77.214844 195.875 55.175781 246.109375 6.253906 254.164063 C 2.492188 254.785156 -0.195313 258.140625 0.0117188 261.949219 C 0.078125 263.082031 0.34375 264.207031 0.808594 265.300781 C 4.480469 273.886719 19.96875 280.175781 48.171875 284.554688 C 49.113281 285.828125 50.09375 290.332031 50.695313 293.074219 C 51.285156 295.78125 51.894531 298.574219 52.757813 301.519531 C 53.609375 304.414063 55.816406 307.875 61.492188 307.875 C 63.785156 307.875 66.492188 307.347656 69.625 306.730469 C 74.324219 305.8125 80.757813 304.558594 88.808594 304.558594 C 93.277344 304.558594 97.90625 304.945313 102.570313 305.71875 C 111.667969 307.234375 119.402344 312.699219 128.355469 319.027344 C 141.179688 328.097656 155.699219 338.359375 177.773438 338.359375 C 178.378906 338.359375 178.988281 338.34375 179.589844 338.296875 C 180.308594 338.328125 181.238281 338.359375 182.226563 338.359375 C 204.304688 338.359375 218.824219 328.09375 231.640625 319.03125 C 240.613281 312.695313 248.339844 307.230469 257.441406 305.71875 C 262.09375 304.945313 266.726563 304.558594 271.191406 304.558594 C 278.878906 304.558594 284.957031 305.535156 290.378906 306.59375 C 293.777344 307.257813 296.511719 307.597656 298.511719 307.597656 L 298.71875 307.601563 L 298.921875 307.601563 C 303.113281 307.601563 306.074219 305.386719 307.246094 301.363281 C 308.097656 298.480469 308.707031 295.761719 309.308594 293.007813 C 309.90625 290.269531 310.882813 285.789063 311.820313 284.519531 C 340.03125 280.140625 355.519531 273.859375 359.183594 265.3125 C 359.652344 264.21875 359.925781 263.082031 359.988281 261.941406 C 360.199219 258.132813 357.511719 254.78125 353.75 254.160156 C 304.804688 246.09375 282.785156 195.871094 281.871094 193.738281 C 281.820313 193.617188 281.765625 193.496094 281.703125 193.378906 C 279.089844 188.078125 278.511719 183.644531 279.972656 180.195313 C 282.796875 173.539063 293.203125 170.238281 300.09375 168.054688 C 302.019531 167.441406 303.832031 166.863281 305.320313 166.277344 C 317.523438 161.457031 323.644531 155.539063 323.515625 148.6875 C 323.410156 143.304688 319.21875 138.503906 312.554688 136.121094 L 312.535156 136.113281 C 310.292969 135.183594 307.632813 134.675781 305.027344 134.675781 C 303.246094 134.675781 300.601563 134.917969 298.136719 136.074219 C 292.332031 138.792969 287.113281 140.273438 282.617188 140.472656 C 279.636719 140.335938 277.683594 139.582031 276.570313 138.96875 C 276.710938 136.488281 276.871094 133.9375 277.039063 131.269531 L 277.101563 130.230469 C 278.644531 105.769531 280.5625 75.324219 272.566406 57.402344 C 248.8125 4.140625 198.375 -0.00390625 183.480469 -0.00390625 Z M 183.480469 7.460938 C 197.042969 7.464844 243.742188 11.101563 265.753906 60.445313 C 272.996094 76.6875 271.144531 106.121094 269.652344 129.765625 C 269.417969 133.515625 269.1875 137.152344 269 140.628906 L 268.921875 142.117188 L 269.917969 143.226563 C 270.320313 143.675781 274.089844 147.613281 282.464844 147.9375 L 282.605469 147.941406 L 282.742188 147.9375 C 288.277344 147.730469 294.519531 146.011719 301.300781 142.835938 C 302.292969 142.367188 303.621094 142.140625 305.027344 142.140625 C 306.632813 142.140625 308.332031 142.441406 309.734375 143.03125 L 309.945313 143.117188 C 313.496094 144.359375 316.011719 146.710938 316.050781 148.832031 C 316.074219 150.039063 315.171875 154.359375 302.578125 159.335938 C 301.347656 159.824219 299.722656 160.335938 297.847656 160.929688 C 289.652344 163.535156 277.269531 167.460938 273.101563 177.273438 C 270.753906 182.8125 271.390625 189.339844 275.007813 196.679688 C 276.496094 200.148438 299.886719 252.851563 352.535156 261.527344 C 352.519531 261.769531 352.460938 262.046875 352.320313 262.367188 C 351.425781 264.472656 345.753906 271.726563 310.464844 277.175781 C 304.941406 278.027344 303.585938 284.214844 302.015625 291.410156 C 301.453125 293.984375 300.871094 296.582031 300.082031 299.273438 C 299.84375 300.085938 299.796875 300.132813 298.921875 300.132813 C 298.800781 300.132813 298.667969 300.132813 298.511719 300.132813 C 296.945313 300.132813 294.566406 299.808594 291.808594 299.269531 C 286.808594 298.289063 279.949219 297.09375 271.191406 297.09375 C 266.304688 297.09375 261.265625 297.515625 256.21875 298.355469 C 245.417969 300.152344 236.632813 306.367188 227.328125 312.9375 C 214.839844 321.769531 201.929688 330.898438 182.226563 330.898438 C 181.371094 330.898438 180.527344 330.867188 179.6875 330.828125 L 179.464844 330.816406 L 179.242188 330.839844 C 178.757813 330.878906 178.269531 330.898438 177.773438 330.898438 C 158.074219 330.898438 145.160156 321.769531 132.671875 312.941406 C 123.371094 306.367188 114.582031 300.152344 103.785156 298.355469 C 98.734375 297.515625 93.699219 297.09375 88.808594 297.09375 C 80.054688 297.09375 73.199219 298.425781 68.191406 299.40625 C 65.4375 299.945313 63.054688 300.410156 61.492188 300.410156 C 60.21875 300.410156 60.191406 300.335938 59.921875 299.414063 C 59.128906 296.722656 58.550781 294.054688 57.988281 291.484375 C 56.414063 284.285156 55.054688 278.0625 49.539063 277.210938 C 14.246094 271.761719 8.578125 264.488281 7.679688 262.390625 C 7.539063 262.0625 7.480469 261.78125 7.46875 261.53125 C 60.113281 252.859375 83.503906 200.164063 84.992188 196.683594 C 88.605469 189.339844 89.25 182.816406 86.898438 177.28125 C 82.734375 167.464844 70.351563 163.535156 62.15625 160.929688 C 60.277344 160.339844 58.65625 159.824219 57.425781 159.335938 C 46.785156 155.132813 43.515625 150.898438 44.003906 148.335938 C 44.566406 145.375 49.695313 142.367188 54.167969 142.367188 C 55.175781 142.367188 56.054688 142.527344 56.707031 142.835938 C 63.976563 146.238281 70.617188 147.96875 76.429688 147.96875 C 85.582031 147.96875 89.65625 143.710938 90.089844 143.226563 L 91.082031 142.117188 L 91 140.632813 C 90.8125 137.160156 90.585938 133.527344 90.347656 129.78125 C 88.859375 106.136719 87.007813 76.722656 94.253906 60.476563 C 116.175781 11.3125 162.648438 7.527344 176.371094 7.527344 C 176.707031 7.527344 182.671875 7.46875 182.671875 7.46875 C 182.929688 7.464844 183.195313 7.460938 183.480469 7.460938 "/>
</g>
</g>
</svg>
